M48
; DRILL file KiCad 10.0.2 date 2026-07-05T20:33:03
; FORMAT={-:-/ absolute / metric / decimal}
; #@! TF.CreationDate,2026-07-05T20:33:03+08:00
; #@! TF.GenerationSoftware,Kicad,Pcbnew,10.0.2
; #@! TF.FileFunction,Plated,1,4,PTH
FMAT,2
METRIC
; #@! TA.AperFunction,Plated,PTH,ViaDrill
T1C0.254
; #@! TA.AperFunction,Plated,PTH,ViaDrill
T2C0.300
; #@! TA.AperFunction,Plated,PTH,ViaDrill
T3C0.305
; #@! TA.AperFunction,Plated,PTH,ComponentDrill
T4C0.400
; #@! TA.AperFunction,Plated,PTH,ComponentDrill
T5C0.600
; #@! TA.AperFunction,Plated,PTH,ViaDrill
T6C0.711
; #@! TA.AperFunction,Plated,PTH,ComponentDrill
T7C0.800
; #@! TA.AperFunction,Plated,PTH,ComponentDrill
T8C0.900
; #@! TA.AperFunction,Plated,PTH,ComponentDrill
T9C1.000
; #@! TA.AperFunction,Plated,PTH,ComponentDrill
T10C1.050
; #@! TA.AperFunction,Plated,PTH,ComponentDrill
T11C1.100
; #@! TA.AperFunction,Plated,PTH,ComponentDrill
T12C1.300
; #@! TA.AperFunction,Plated,PTH,ComponentDrill
T13C1.600
; #@! TA.AperFunction,Plated,PTH,ComponentDrill
T14C1.700
; #@! TA.AperFunction,Plated,PTH,ComponentDrill
T15C2.000
; #@! TA.AperFunction,Plated,PTH,ComponentDrill
T16C2.500
; #@! TA.AperFunction,Plated,PTH,ComponentDrill
T17C3.200
; #@! TA.AperFunction,Plated,PTH,ComponentDrill
T18C4.200
%
G90
G05
T1
X98.853Y-59.164
X98.873Y-79.474
X99.563Y-59.164
X99.583Y-79.474
X102.273Y-65.494
X110.103Y-126.764
X111.343Y-134.88
X121.203Y-108.034
X121.773Y-103.264
X121.773Y-103.974
X124.213Y-120.13
X124.213Y-121.63
X124.213Y-123.124
X124.213Y-124.624
X124.213Y-126.13
X124.213Y-127.634
X124.213Y-129.13
X124.213Y-130.634
X124.813Y-120.524
X124.813Y-121.244
X124.813Y-123.514
X124.813Y-124.234
X124.813Y-126.514
X124.813Y-127.234
X124.813Y-129.524
X124.813Y-130.234
X125.013Y-108.654
X127.183Y-100.984
X133.613Y-105.88
X133.973Y-112.38
X134.413Y-113.014
X136.683Y-121.274
X136.683Y-121.984
X136.713Y-133.284
X136.713Y-134.004
X136.713Y-134.784
X136.713Y-135.504
X137.343Y-120.844
X137.343Y-122.38
X137.383Y-134.38
X140.223Y-83.38
X140.223Y-86.394
X140.277Y-119.38
X140.277Y-120.88
X140.973Y-110.764
X140.973Y-111.474
X140.973Y-119.774
X140.973Y-120.484
X141.323Y-84.894
X142.383Y-83.38
X142.383Y-86.394
X143.163Y-118.284
X143.163Y-118.984
X143.453Y-79.624
X143.503Y-84.894
X144.113Y-123.274
X144.113Y-124.104
X144.153Y-129.224
X144.153Y-130.004
X144.163Y-125.254
X144.163Y-126.074
X144.163Y-127.224
X144.163Y-128.024
X144.163Y-131.224
X144.163Y-132.034
X144.461Y-86.394
X144.473Y-83.38
X145.503Y-79.578
X145.506Y-84.888
X146.523Y-83.38
X146.523Y-86.394
X147.654Y-84.894
X148.853Y-83.38
X148.853Y-86.394
X150.293Y-84.844
X151.263Y-81.644
X151.363Y-83.954
X151.363Y-86.394
X152.983Y-84.844
X153.203Y-77.494
X153.203Y-79.204
X154.803Y-83.724
X154.933Y-86.324
X155.063Y-80.424
X155.743Y-68.294
X155.743Y-69.684
X155.748Y-71.264
X155.783Y-77.504
X155.983Y-82.074
X157.013Y-105.564
X157.813Y-83.434
X158.233Y-80.38
X158.293Y-77.504
X159.233Y-67.894
X159.493Y-69.574
X160.153Y-70.624
X160.563Y-79.074
X161.243Y-71.664
X161.953Y-73.994
X165.383Y-122.814
X166.733Y-125.514
X169.253Y-106.254
X178.853Y-107.204
X178.853Y-108.334
X179.073Y-103.144
X179.333Y-111.866
X179.973Y-107.204
X181.513Y-105.214
X181.913Y-111.664
X182.323Y-122.074
X183.383Y-121.944
X184.163Y-107.204
X184.223Y-109.454
X187.313Y-109.454
X195.813Y-137.294
X195.813Y-138.164
X195.813Y-144.084
X196.863Y-144.084
X203.593Y-138.003
X205.161Y-138.003
T2
X53.711Y-61.004
X53.711Y-149.004
X54.455Y-59.208
X54.455Y-62.8
X54.455Y-147.207
X54.455Y-150.8
X55.593Y-120.724
X56.251Y-58.464
X56.251Y-63.544
X56.251Y-146.464
X56.251Y-151.544
X58.047Y-59.208
X58.047Y-62.8
X58.047Y-147.207
X58.047Y-150.8
X58.213Y-117.384
X58.213Y-118.634
X58.791Y-61.004
X58.791Y-149.004
X66.211Y-87.004
X66.211Y-123.003
X66.955Y-85.208
X66.955Y-88.8
X66.955Y-121.207
X66.955Y-124.8
X68.751Y-84.464
X68.751Y-89.544
X68.751Y-120.463
X68.751Y-125.543
X70.547Y-85.208
X70.547Y-88.8
X70.547Y-121.207
X70.547Y-124.8
X71.291Y-87.004
X71.291Y-123.003
X75.134Y-73.205
X75.134Y-136.805
X75.878Y-75.001
X75.878Y-135.009
X75.878Y-71.409
X75.878Y-138.601
X77.674Y-70.665
X77.674Y-75.745
X77.674Y-134.265
X77.674Y-139.345
X79.47Y-71.409
X79.47Y-75.001
X79.47Y-135.009
X79.47Y-138.601
X80.214Y-73.205
X80.214Y-136.805
X86.723Y-104.134
X86.723Y-127.38
X87.467Y-102.338
X87.467Y-105.93
X87.467Y-125.584
X87.467Y-129.176
X89.263Y-101.594
X89.263Y-106.674
X89.263Y-124.84
X89.263Y-129.92
X91.059Y-102.338
X91.059Y-105.93
X91.059Y-125.584
X91.059Y-129.176
X91.803Y-104.134
X91.803Y-127.38
X112.243Y-138.144
X121.813Y-135.964
X121.813Y-136.864
X127.213Y-117.344
X128.323Y-107.914
X128.773Y-118.63
X131.807Y-57.374
X133.983Y-120.164
X134.413Y-107.024
X134.413Y-114.154
X134.413Y-117.124
X134.623Y-57.374
X135.613Y-108.724
X135.813Y-146.764
X136.323Y-149.964
X137.303Y-98.88
X137.683Y-144.764
X138.573Y-139.714
X139.723Y-142.764
X140.293Y-93.154
X141.203Y-61.004
X141.203Y-149.004
X141.947Y-59.208
X141.947Y-62.8
X141.947Y-147.207
X141.947Y-150.8
X142.223Y-101.694
X142.453Y-91.764
X142.683Y-95.964
X143.053Y-98.004
X143.743Y-58.464
X143.743Y-63.544
X143.743Y-146.464
X143.743Y-151.544
X145.143Y-140.064
X145.539Y-59.208
X145.539Y-62.8
X145.539Y-147.207
X145.539Y-150.8
X146.283Y-61.004
X146.283Y-149.004
X146.576Y-140.064
X149.363Y-140.104
X150.713Y-138.974
X153.633Y-71.184
X154.153Y-67.854
X156.313Y-107.464
X157.473Y-68.064
X157.613Y-107.464
X157.823Y-71.274
X158.103Y-141.464
X160.013Y-107.464
X160.893Y-135.174
X160.893Y-141.464
X161.113Y-107.464
X162.313Y-107.464
X163.033Y-135.164
X163.703Y-141.464
X164.193Y-137.998
X164.413Y-107.464
X165.613Y-107.464
X166.183Y-137.774
X166.733Y-135.39
X166.813Y-107.464
X170.323Y-135.164
X172.313Y-107.664
X173.183Y-138.974
X175.013Y-123.22
X177.243Y-141.464
X178.633Y-125.954
X179.973Y-103.144
X181.513Y-94.264
X182.465Y-94.264
X183.193Y-141.597
X183.453Y-94.264
X184.113Y-117.914
X184.413Y-135.174
X184.547Y-97.794
X186.273Y-97.794
X200.323Y-106.484
X201.933Y-97.484
X202.323Y-67.614
X203.483Y-98.694
X204.203Y-61.004
X204.203Y-149.004
X204.947Y-59.208
X204.947Y-62.8
X204.947Y-147.207
X204.947Y-150.8
X206.743Y-58.464
X206.743Y-63.544
X206.743Y-146.464
X206.743Y-151.544
X208.539Y-59.208
X208.539Y-62.8
X208.539Y-147.207
X208.539Y-150.8
X209.283Y-61.004
X209.283Y-149.004
X210.583Y-90.514
X210.583Y-119.514
X211.327Y-88.718
X211.327Y-92.31
X211.327Y-117.718
X211.327Y-121.31
X213.123Y-87.974
X213.123Y-93.054
X213.123Y-116.974
X213.123Y-122.054
X214.919Y-88.718
X214.919Y-92.31
X214.919Y-117.718
X214.919Y-121.31
X215.663Y-90.514
X215.663Y-119.514
X218.463Y-77.29
X219.713Y-98.954
X219.713Y-101.304
X219.713Y-103.264
X219.833Y-112.254
X219.833Y-113.544
X219.863Y-78.734
X224.783Y-109.004
X224.783Y-111.054
X224.823Y-98.024
X224.823Y-99.424
X225.283Y-79.634
X227.033Y-78.124
X227.033Y-81.294
X227.615Y-118.754
X229.053Y-115.114
X229.053Y-116.169
X230.373Y-115.114
X230.403Y-75.164
X230.403Y-88.384
X231.673Y-115.12
X237.633Y-115.214
X238.833Y-115.214
T3
X52.173Y-73.414
X52.173Y-79.534
X52.173Y-85.584
X52.173Y-91.664
X52.853Y-109.624
X52.853Y-113.414
X52.853Y-117.204
X54.933Y-108.674
X75.453Y-144.574
X77.633Y-80.224
X77.633Y-83.974
X77.633Y-115.824
X77.653Y-87.724
X77.653Y-119.604
X77.653Y-123.394
X77.653Y-127.184
X77.653Y-130.974
X77.674Y-91.474
X79.233Y-144.574
X83.023Y-144.574
X86.813Y-144.574
X88.233Y-59.794
X88.233Y-65.584
X88.233Y-67.464
X88.233Y-69.334
X89.113Y-58.914
X90.603Y-144.574
X94.273Y-84.034
X94.273Y-90.754
X94.273Y-97.464
X94.273Y-104.174
X94.273Y-110.924
X94.273Y-117.644
X94.273Y-124.354
X94.313Y-131.104
X94.353Y-137.824
X94.393Y-144.574
X97.003Y-94.174
X98.033Y-64.244
X98.143Y-74.824
X99.985Y-65.584
X101.823Y-74.824
X101.873Y-64.284
X102.293Y-91.934
X104.893Y-153.494
X107.983Y-95.264
X107.983Y-99.124
X107.983Y-102.984
X107.983Y-106.844
X107.983Y-110.704
X107.983Y-114.564
X107.983Y-118.424
X108.013Y-80.984
X108.013Y-83.944
X109.198Y-130.369
X109.813Y-129.754
X110.473Y-151.734
X110.943Y-91.934
X111.523Y-112.384
X111.523Y-113.404
X111.523Y-118.134
X111.523Y-119.134
X111.523Y-121.154
X111.523Y-122.154
X111.793Y-84.224
X111.793Y-86.094
X111.793Y-87.974
X112.203Y-100.034
X112.203Y-100.874
X112.203Y-107.38
X112.203Y-108.674
X112.253Y-130.114
X112.263Y-92.804
X112.263Y-93.974
X112.583Y-57.374
X113.723Y-100.794
X113.723Y-101.794
X114.083Y-136.224
X114.083Y-137.074
X114.583Y-68.354
X115.403Y-75.104
X115.403Y-76.224
X115.403Y-77.334
X115.693Y-68.354
X115.963Y-153.064
X116.813Y-68.354
X117.093Y-81.294
X117.093Y-82.294
X117.113Y-80.244
X117.549Y-147.304
X117.553Y-103.354
X117.553Y-104.999
X117.553Y-106.644
X117.553Y-122.874
X117.553Y-124.519
X117.553Y-126.164
X117.993Y-57.374
X118.213Y-68.354
X118.253Y-83.934
X118.753Y-79.054
X119.323Y-68.354
X119.523Y-78.404
X119.553Y-81.294
X119.563Y-82.294
X119.623Y-79.384
X119.873Y-101.854
X119.973Y-153.064
X120.393Y-78.844
X120.403Y-79.844
X120.443Y-68.354
X120.713Y-146.964
X121.253Y-79.624
X121.554Y-140.954
X121.613Y-131.864
X121.733Y-111.874
X121.883Y-68.354
X121.973Y-107.38
X122.633Y-146.674
X122.674Y-140.954
X122.993Y-68.354
X123.723Y-57.374
X123.784Y-140.954
X124.113Y-68.354
X124.137Y-152.964
X124.213Y-111.874
X124.213Y-113.574
X124.213Y-115.754
X124.213Y-116.694
X124.213Y-117.674
X124.213Y-118.634
X124.223Y-96.374
X124.223Y-94.814
X124.223Y-102.874
X124.223Y-104.444
X124.223Y-106.014
X124.483Y-79.084
X124.613Y-81.924
X124.613Y-82.88
X125.413Y-82.264
X125.473Y-98.364
X125.543Y-68.734
X126.653Y-68.734
X126.803Y-151.544
X126.973Y-75.104
X126.973Y-76.224
X126.973Y-77.334
X127.183Y-99.784
X127.243Y-147.724
X127.773Y-68.734
X127.773Y-82.13
X127.933Y-79.054
X127.933Y-80.264
X128.323Y-109.63
X128.323Y-115.454
X128.623Y-87.414
X128.623Y-90.404
X128.623Y-93.384
X128.623Y-96.364
X128.973Y-135.994
X129.044Y-144.614
X130.013Y-66.364
X130.164Y-144.614
X130.244Y-140.624
X130.803Y-151.554
X131.274Y-144.614
X131.283Y-65.594
X131.364Y-140.624
X132.213Y-77.63
X132.213Y-79.13
X132.213Y-80.63
X132.213Y-82.13
X132.213Y-83.619
X132.213Y-85.13
X132.213Y-86.614
X132.213Y-88.13
X132.213Y-91.13
X132.213Y-126.674
X132.213Y-128.674
X132.213Y-130.63
X132.213Y-132.63
X132.223Y-89.63
X132.223Y-94.134
X132.223Y-97.13
X132.223Y-104.884
X132.223Y-111.444
X132.223Y-114.13
X132.223Y-115.591
X132.223Y-117.13
X132.223Y-118.544
X132.223Y-120.13
X132.223Y-121.784
X132.223Y-122.774
X132.223Y-124.624
X132.473Y-146.654
X132.474Y-140.624
X132.548Y-135.974
X132.613Y-136.784
X133.253Y-62.664
X133.253Y-63.774
X133.553Y-145.714
X134.413Y-72.474
X134.413Y-73.304
X134.423Y-74.134
X134.993Y-104.884
X135.047Y-152.964
X135.213Y-72.474
X135.213Y-73.304
X135.213Y-74.134
X136.858Y-109.88
X136.889Y-113.564
X136.889Y-114.88
X136.889Y-116.224
X136.889Y-119.38
X136.913Y-124.674
X136.913Y-126.624
X136.913Y-128.724
X136.913Y-130.714
X137.193Y-77.38
X137.193Y-78.88
X137.193Y-80.379
X137.193Y-81.88
X137.193Y-83.38
X137.193Y-84.88
X137.193Y-86.38
X137.193Y-87.88
X137.193Y-89.38
X137.193Y-91.38
X137.253Y-132.63
X140.277Y-117.824
X140.293Y-110.344
X140.323Y-113.38
X140.413Y-132.88
X140.413Y-135.88
X140.443Y-75.174
X140.443Y-77.024
X140.443Y-78.49
X140.443Y-79.924
X140.443Y-81.414
X140.743Y-95.694
X140.743Y-98.88
X141.463Y-68.034
X142.343Y-136.144
X142.453Y-103.714
X142.463Y-104.534
X142.573Y-68.034
X142.889Y-140.394
X143.023Y-89.194
X143.023Y-90.174
X143.173Y-116.894
X143.613Y-95.239
X143.693Y-68.034
X143.863Y-120.544
X144.123Y-101.414
X144.413Y-98.564
X145.213Y-101.414
X145.323Y-106.42
X145.513Y-94.289
X145.513Y-97.614
X145.943Y-108.824
X145.947Y-135.891
X146.153Y-89.194
X147.083Y-119.814
X147.241Y-100.654
X147.633Y-116.454
X147.743Y-105.784
X148.383Y-120.464
X148.473Y-80.984
X148.503Y-105.094
X149.153Y-89.194
X149.253Y-105.784
X149.593Y-79.874
X150.106Y-94.289
X150.106Y-97.614
X150.113Y-75.554
X150.113Y-76.684
X150.533Y-73.254
X150.594Y-78.863
X151.119Y-63.247
X151.604Y-59.271
X151.727Y-99.524
X151.971Y-96.684
X151.971Y-118.514
X152.153Y-89.194
X152.413Y-105.38
X152.413Y-136.63
X152.703Y-94.289
X153.248Y-73.254
X153.663Y-99.524
X154.443Y-105.224
X155.362Y-105.254
X155.748Y-73.254
X155.783Y-99.524
X156.071Y-88.11
X157.813Y-99.524
X158.192Y-85.988
X158.248Y-73.254
X160.313Y-83.867
X160.733Y-80.904
X160.873Y-87.944
X160.873Y-89.794
X160.873Y-91.694
X160.873Y-93.614
X161.003Y-73.254
X162.103Y-72.824
X162.403Y-77.504
X162.713Y-80.334
X162.923Y-87.884
X162.923Y-89.734
X162.923Y-91.634
X162.923Y-93.554
X163.313Y-59.219
X165.953Y-65.364
X166.143Y-57.6
X166.143Y-70.274
X166.143Y-71.624
X166.573Y-61.474
X166.983Y-63.964
X166.983Y-72.824
X168.041Y-128.161
X168.213Y-66.053
X168.943Y-77.844
X168.943Y-79.694
X168.943Y-81.594
X168.943Y-83.514
X169.163Y-72.214
X169.389Y-57.6
X172.783Y-97.794
X172.843Y-125.034
X173.561Y-102.262
X174.713Y-86.324
X174.713Y-97.794
X175.223Y-116.504
X175.303Y-87.305
X175.303Y-95.514
X175.353Y-78.874
X176.333Y-116.504
X176.333Y-125.954
X176.413Y-96.164
X176.948Y-95.239
X177.232Y-121.135
X177.278Y-120.425
X177.453Y-116.504
X177.583Y-124.964
X178.213Y-120.389
X178.213Y-121.135
X178.643Y-124.964
X178.853Y-116.504
X179.168Y-120.389
X179.168Y-121.135
X179.753Y-124.964
X179.798Y-93.814
X180.203Y-120.389
X180.203Y-121.135
X180.473Y-78.874
X180.673Y-114.179
X181.013Y-125.744
X182.313Y-124.864
X182.583Y-83.184
X182.923Y-111.374
X183.035Y-114.179
X183.193Y-117.394
X183.223Y-144.084
X183.383Y-124.864
X183.453Y-84.114
X184.163Y-111.324
X185.808Y-110.198
X187.603Y-107.204
X187.614Y-104.234
X189.953Y-76.694
X189.953Y-80.714
X190.663Y-75.474
X190.683Y-79.784
X191.543Y-107.864
X191.543Y-108.864
X191.713Y-98.844
X191.713Y-99.814
X193.243Y-105.214
X193.393Y-63.244
X193.393Y-65.164
X193.393Y-67.064
X194.473Y-114.054
X195.253Y-75.157
X195.513Y-93.814
X195.743Y-86.164
X196.553Y-73.454
X196.553Y-74.394
X196.593Y-66.284
X196.633Y-93.814
X196.703Y-114.054
X196.703Y-118.054
X197.431Y-119.604
X197.593Y-86.164
X197.873Y-103.654
X197.933Y-72.394
X197.933Y-76.64
X198.083Y-63.994
X198.413Y-69.084
X198.893Y-72.354
X198.893Y-76.64
X198.993Y-103.654
X199.233Y-116.344
X199.353Y-69.084
X199.493Y-86.164
X199.703Y-63.994
X199.853Y-72.394
X199.853Y-76.64
X200.193Y-126.855
X200.643Y-78.874
X201.223Y-73.474
X201.223Y-74.414
X201.413Y-86.164
X201.613Y-121.944
X201.643Y-63.994
X202.563Y-78.874
X203.253Y-70.494
X203.253Y-71.661
X203.264Y-126.855
X203.264Y-135.804
X203.945Y-102.399
X204.1Y-117.569
X204.413Y-97.184
X204.413Y-101.304
X204.671Y-122.354
X205.134Y-105.142
X205.178Y-98.929
X205.204Y-116.344
X205.478Y-121.569
X205.493Y-69.074
X205.653Y-95.274
X205.863Y-131.434
X206.413Y-140.774
X206.492Y-106.5
X206.492Y-120.709
X207.083Y-127.489
X207.333Y-119.794
X207.333Y-133.294
X207.572Y-99.603
X207.583Y-69.074
X207.835Y-107.844
X208.204Y-130.583
X208.225Y-127.489
X208.253Y-140.774
X208.323Y-133.294
X208.929Y-100.961
X209.903Y-76.64
X209.903Y-85.192
X210.033Y-140.774
X210.273Y-102.304
X210.365Y-72.032
X210.619Y-77.674
X210.633Y-86.164
X211.09Y-71.307
X211.581Y-103.612
X211.783Y-70.494
X211.944Y-125.934
X211.944Y-126.817
X212.383Y-107.254
X212.788Y-76.364
X213.628Y-62.599
X213.643Y-77.344
X213.693Y-75.494
X213.883Y-70.876
X214.326Y-65.494
X214.563Y-76.404
X214.913Y-129.653
X214.913Y-130.903
X214.986Y-61.241
X215.198Y-110.719
X215.303Y-108.864
X215.703Y-133.114
X216.013Y-78.464
X216.273Y-144.962
X216.643Y-62.196
X216.693Y-133.114
X217.073Y-107.248
X217.267Y-139.229
X217.333Y-79.134
X217.333Y-97.574
X217.333Y-99.424
X217.333Y-101.324
X217.333Y-103.244
X217.413Y-112.254
X218.203Y-70.994
X218.598Y-138.415
X218.625Y-125.745
X219.273Y-71.834
X219.693Y-94.704
X219.713Y-129.524
X219.713Y-131.054
X219.833Y-107.194
X220.413Y-141.059
X220.425Y-114.853
X220.44Y-118.754
X220.44Y-120.008
X220.44Y-121.392
X220.46Y-122.681
X221.533Y-134.894
X222.019Y-118.79
X222.019Y-120.044
X222.019Y-121.429
X222.723Y-94.704
X222.913Y-100.664
X223.993Y-94.704
X227.113Y-97.964
X227.113Y-112.074
X227.413Y-85.364
X227.413Y-94.164
X227.785Y-75.064
X228.363Y-102.399
X228.363Y-103.509
X228.363Y-104.629
X229.343Y-86.014
X229.713Y-128.264
X230.213Y-137.864
X230.403Y-71.614
X230.403Y-100.374
X230.403Y-106.564
X230.621Y-127.358
X230.813Y-102.814
X230.813Y-104.214
X231.213Y-137.064
X231.513Y-126.471
X231.513Y-100.374
X231.513Y-106.564
X231.603Y-79.134
X231.603Y-81.054
X231.603Y-82.954
X231.603Y-84.804
X232.053Y-136.404
X232.223Y-102.804
X232.223Y-104.214
X232.385Y-127.829
X232.633Y-100.374
X232.633Y-106.564
X232.633Y-131.054
X232.913Y-135.664
X234.153Y-130.24
X234.533Y-117.694
X235.267Y-116.169
X237.963Y-112.134
T5
X95.985Y-68.114
X95.985Y-71.314
X96.485Y-66.614
X96.485Y-69.814
X97.985Y-68.114
X97.985Y-71.314
X98.985Y-66.614
X98.985Y-69.814
X99.985Y-68.114
X99.985Y-71.314
X100.985Y-66.614
X100.985Y-69.814
X101.985Y-68.114
X101.985Y-71.314
X103.485Y-66.614
X103.485Y-69.814
X103.985Y-68.114
X103.985Y-71.314
T6
X170.323Y-124.554
X224.957Y-124.744
T7
X174.183Y-72.274
X174.183Y-74.814
X174.183Y-69.734
X176.723Y-69.734
X176.723Y-72.274
X176.723Y-74.814
X179.263Y-69.734
X179.263Y-72.274
X179.263Y-74.814
X181.803Y-69.734
X181.803Y-72.274
X181.803Y-74.814
X184.343Y-69.734
X184.343Y-72.274
X184.343Y-74.814
X186.883Y-69.734
X186.883Y-72.274
X186.883Y-74.814
T8
X102.893Y-146.684
X104.893Y-146.684
X106.893Y-146.684
X108.893Y-146.684
X171.543Y-58.494
X171.543Y-61.074
X174.083Y-58.494
X174.083Y-61.074
X176.623Y-58.494
X176.623Y-61.074
X184.413Y-58.494
X184.413Y-61.044
X186.953Y-58.494
X186.953Y-61.044
X189.493Y-58.494
X189.493Y-61.044
T9
X154.953Y-141.914
X165.953Y-141.914
X186.263Y-135.804
X197.263Y-135.804
T10
X67.073Y-108.619
T11
X134.674Y-70.605
T12
X67.073Y-101.169
T13
X134.674Y-139.405
T14
X157.953Y-131.914
X162.953Y-131.914
X189.263Y-130.804
X194.263Y-130.804
T15
X93.413Y-64.584
X93.413Y-70.264
X106.613Y-64.584
X106.613Y-70.264
T16
X77.674Y-73.205
X77.674Y-136.805
T17
X56.251Y-61.004
X56.251Y-149.004
X68.751Y-87.004
X68.751Y-123.003
X143.743Y-61.004
X143.743Y-149.004
X206.743Y-61.004
X206.743Y-149.004
X213.123Y-90.514
X213.123Y-119.514
T18
X89.263Y-104.134
X89.263Y-127.38
T4
G00X216.529Y-143.002
M15
G01X216.012Y-142.264
M16
G05
G00X216.697Y-67.355
M15
G01X216.238Y-68.011
M16
G05
G00X223.577Y-138.005
M15
G01X223.118Y-137.35
M16
G05
G00X223.803Y-72.27
M15
G01X223.287Y-73.007
M16
G05
T5
G00X218.496Y-145.812
M15
G01X218.84Y-146.303
M16
G05
G00X218.693Y-64.505
M15
G01X219.037Y-64.013
M16
G05
G00X225.573Y-140.856
M15
G01X225.917Y-141.347
M16
G05
G00X225.771Y-69.46
M15
G01X226.115Y-68.969
M16
G05
T7
G00X150.223Y-59.564
M15
G01X150.223Y-58.764
M16
G05
G00X150.223Y-66.024
M15
G01X150.223Y-64.224
M16
G05
G00X164.723Y-59.564
M15
G01X164.723Y-58.764
M16
G05
G00X164.723Y-66.024
M15
G01X164.723Y-64.224
M16
G05
M30
