%TF.GenerationSoftware,KiCad,Pcbnew,10.0.2*%
%TF.CreationDate,2026-07-05T20:32:48+08:00*%
%TF.ProjectId,DonkeyDrift-MUS4,446f6e6b-6579-4447-9269-66742d4d5553,rev?*%
%TF.SameCoordinates,Original*%
%TF.FileFunction,Copper,L2,Inr*%
%TF.FilePolarity,Positive*%
%FSLAX46Y46*%
G04 Gerber Fmt 4.6, Leading zero omitted, Abs format (unit mm)*
G04 Created by KiCad (PCBNEW 10.0.2) date 2026-07-05 20:32:48*
%MOMM*%
%LPD*%
G01*
G04 APERTURE LIST*
G04 Aperture macros list*
%AMRoundRect*
0 Rectangle with rounded corners*
0 $1 Rounding radius*
0 $2 $3 $4 $5 $6 $7 $8 $9 X,Y pos of 4 corners*
0 Add a 4 corners polygon primitive as box body*
4,1,4,$2,$3,$4,$5,$6,$7,$8,$9,$2,$3,0*
0 Add four circle primitives for the rounded corners*
1,1,$1+$1,$2,$3*
1,1,$1+$1,$4,$5*
1,1,$1+$1,$6,$7*
1,1,$1+$1,$8,$9*
0 Add four rect primitives between the rounded corners*
20,1,$1+$1,$2,$3,$4,$5,0*
20,1,$1+$1,$4,$5,$6,$7,0*
20,1,$1+$1,$6,$7,$8,$9,0*
20,1,$1+$1,$8,$9,$2,$3,0*%
%AMHorizOval*
0 Thick line with rounded ends*
0 $1 width*
0 $2 $3 position (X,Y) of the first rounded end (center of the circle)*
0 $4 $5 position (X,Y) of the second rounded end (center of the circle)*
0 Add line between two ends*
20,1,$1,$2,$3,$4,$5,0*
0 Add two circle primitives to create the rounded ends*
1,1,$1,$2,$3*
1,1,$1,$4,$5*%
G04 Aperture macros list end*
%TA.AperFunction,Conductor*%
%ADD10C,0.000000*%
%TD*%
%TA.AperFunction,ComponentPad*%
%ADD11C,6.000000*%
%TD*%
%TA.AperFunction,ComponentPad*%
%ADD12RoundRect,0.126000X0.474000X0.799000X-0.474000X0.799000X-0.474000X-0.799000X0.474000X-0.799000X0*%
%TD*%
%TA.AperFunction,ComponentPad*%
%ADD13RoundRect,0.600000X0.000010X0.325000X-0.000010X0.325000X-0.000010X-0.325000X0.000010X-0.325000X0*%
%TD*%
%TA.AperFunction,ComponentPad*%
%ADD14C,2.200000*%
%TD*%
%TA.AperFunction,ComponentPad*%
%ADD15O,3.500000X4.000000*%
%TD*%
%TA.AperFunction,ComponentPad*%
%ADD16C,1.300000*%
%TD*%
%TA.AperFunction,ComponentPad*%
%ADD17C,1.050000*%
%TD*%
%TA.AperFunction,ComponentPad*%
%ADD18HorizOval,1.200000X0.172073X0.245746X-0.172073X-0.245746X0*%
%TD*%
%TA.AperFunction,ComponentPad*%
%ADD19RoundRect,0.450000X0.245831X0.438255X-0.327746X-0.380897X-0.245831X-0.438255X0.327746X0.380897X0*%
%TD*%
%TA.AperFunction,ComponentPad*%
%ADD20HorizOval,1.200000X-0.172073X0.245746X0.172073X-0.245746X0*%
%TD*%
%TA.AperFunction,ComponentPad*%
%ADD21RoundRect,0.450000X0.327746X-0.380897X-0.245831X0.438255X-0.327746X0.380897X0.245831X-0.438255X0*%
%TD*%
%TA.AperFunction,ComponentPad*%
%ADD22C,2.000000*%
%TD*%
%TA.AperFunction,ComponentPad*%
%ADD23RoundRect,0.750000X0.000010X-0.900000X0.000010X0.900000X-0.000010X0.900000X-0.000010X-0.900000X0*%
%TD*%
%TA.AperFunction,ComponentPad*%
%ADD24RoundRect,0.750000X0.000010X-0.400000X0.000010X0.400000X-0.000010X0.400000X-0.000010X-0.400000X0*%
%TD*%
%TA.AperFunction,ComponentPad*%
%ADD25C,1.100000*%
%TD*%
%TA.AperFunction,ComponentPad*%
%ADD26C,1.600000*%
%TD*%
%TA.AperFunction,ComponentPad*%
%ADD27RoundRect,0.500000X0.500000X0.500000X-0.500000X0.500000X-0.500000X-0.500000X0.500000X-0.500000X0*%
%TD*%
%TA.AperFunction,ComponentPad*%
%ADD28C,1.900000*%
%TD*%
%TA.AperFunction,ComponentPad*%
%ADD29C,1.000000*%
%TD*%
%TA.AperFunction,ComponentPad*%
%ADD30C,3.000000*%
%TD*%
%TA.AperFunction,ViaPad*%
%ADD31C,0.400000*%
%TD*%
%TA.AperFunction,ViaPad*%
%ADD32C,0.558800*%
%TD*%
%TA.AperFunction,ViaPad*%
%ADD33C,0.508000*%
%TD*%
%TA.AperFunction,ViaPad*%
%ADD34C,0.600000*%
%TD*%
%TA.AperFunction,ViaPad*%
%ADD35C,0.500000*%
%TD*%
%TA.AperFunction,ViaPad*%
%ADD36C,1.270000*%
%TD*%
%TA.AperFunction,Conductor*%
%ADD37C,0.508000*%
%TD*%
%TA.AperFunction,Conductor*%
%ADD38C,0.381000*%
%TD*%
%TA.AperFunction,Conductor*%
%ADD39C,0.177800*%
%TD*%
%TA.AperFunction,Conductor*%
%ADD40C,3.556000*%
%TD*%
G04 APERTURE END LIST*
D10*
%TA.AperFunction,Conductor*%
%TO.N,VCPU*%
G36*
X135822695Y-71724317D02*
G01*
X136582705Y-72484337D01*
X136582685Y-76654307D01*
X135582705Y-77654317D01*
X133972685Y-77654307D01*
X133032705Y-76714267D01*
X133032695Y-72454317D01*
X133762705Y-71724307D01*
X135822695Y-71724317D01*
G37*
%TD.AperFunction*%
%TD*%
D11*
%TO.N,*%
%TO.C,FID2*%
X68751255Y-123003467D03*
%TD*%
%TO.N,*%
%TO.C,FID1*%
X143742695Y-149003507D03*
%TD*%
%TO.N,*%
%TO.C,FID8*%
X206742695Y-61003677D03*
%TD*%
D12*
%TO.N,GND*%
%TO.C,CPU_FAN*%
X108892695Y-146684317D03*
D13*
%TO.N,+5V*%
X106892695Y-146684317D03*
%TO.N,NetCPU_FAN_3*%
X104892695Y-146684317D03*
%TO.N,NetCPU_FAN_4*%
X102892695Y-146684317D03*
%TD*%
D14*
%TO.N,N/C*%
%TO.C,3S BATTERY*%
X165952695Y-141914317D03*
X154952695Y-141914317D03*
D15*
%TO.N,VIN*%
X162952695Y-131914317D03*
%TO.N,GND*%
X157952695Y-131914317D03*
%TD*%
D16*
%TO.N,N/C*%
%TO.C,BT1*%
X67072695Y-101169327D03*
D17*
X67072695Y-108619327D03*
%TD*%
D11*
%TO.N,*%
%TO.C,SSD_2230*%
X89262695Y-127380027D03*
%TD*%
%TO.N,*%
%TO.C,FID3*%
X68751255Y-87003677D03*
%TD*%
%TO.N,*%
%TO.C,FID7*%
X56251265Y-61003677D03*
%TD*%
D18*
%TO.N,GND*%
%TO.C,UART*%
X225942838Y-69214736D03*
D19*
X223544935Y-72638657D03*
D18*
X218865318Y-64258996D03*
D19*
X216467475Y-67682937D03*
%TD*%
D20*
%TO.N,GND*%
%TO.C,PD-MAX 15V*%
X218667687Y-146057370D03*
D21*
X216270395Y-142633047D03*
D20*
X225745217Y-141101630D03*
D21*
X223347865Y-137677337D03*
%TD*%
D11*
%TO.N,*%
%TO.C,FID6*%
X56251295Y-149003507D03*
%TD*%
D14*
%TO.N,N/C*%
%TO.C,ESC_POWER*%
X197262695Y-135804317D03*
X186262695Y-135804317D03*
D15*
%TO.N,VMOTO*%
X189262695Y-130804317D03*
%TO.N,GND*%
X194262695Y-130804317D03*
%TD*%
D22*
%TO.N,PWM_IN1*%
%TO.C,RECEIVER*%
X186882695Y-74814317D03*
%TO.N,PWM_IN2*%
X184342695Y-74814317D03*
%TO.N,PWM_IN3*%
X181802695Y-74814317D03*
%TO.N,PWM_IN4*%
X179262695Y-74814317D03*
%TO.N,PWM_IN5*%
X176722695Y-74814317D03*
%TO.N,PWM_IN6*%
X174182685Y-74814317D03*
%TO.N,+5V*%
X174182685Y-72274317D03*
X176722695Y-72274317D03*
X179262695Y-72274317D03*
X181802695Y-72274317D03*
X184342695Y-72274317D03*
X186882695Y-72274317D03*
%TO.N,GND*%
X174182695Y-69734317D03*
X176722695Y-69734317D03*
X179262695Y-69734317D03*
X181802695Y-69734317D03*
X184342695Y-69734317D03*
X186882695Y-69734317D03*
%TD*%
D23*
%TO.N,GND*%
%TO.C,HDMI*%
X150222695Y-65124317D03*
X164722695Y-65124317D03*
D24*
X150222695Y-59164317D03*
X164722695Y-59164317D03*
%TD*%
D11*
%TO.N,*%
%TO.C,FID4*%
X206742695Y-149003507D03*
%TD*%
%TO.N,*%
%TO.C,FID5*%
X143742695Y-61003677D03*
%TD*%
%TO.N,*%
%TO.C,Camera*%
X213122695Y-90514317D03*
X213122695Y-119514257D03*
%TD*%
%TO.N,*%
%TO.C,A1*%
X77674085Y-73205027D03*
X77674085Y-136805027D03*
D25*
%TO.N,N/C*%
X134674085Y-70605027D03*
D26*
X134674085Y-139405027D03*
%TD*%
D11*
%TO.N,*%
%TO.C,WIFI_MODLE*%
X89262695Y-104134307D03*
%TD*%
D27*
%TO.N,NetPWM_1_1*%
%TO.C,PWM_1*%
X176622695Y-58494317D03*
D28*
%TO.N,+5V*%
X174082695Y-58494317D03*
%TO.N,GND*%
X171542695Y-58494317D03*
%TD*%
D27*
%TO.N,NetPWM_2_1*%
%TO.C,PWM_2*%
X176622695Y-61074317D03*
D28*
%TO.N,+5V*%
X174082695Y-61074317D03*
%TO.N,GND*%
X171542695Y-61074317D03*
%TD*%
D27*
%TO.N,NetCH2_TH_1*%
%TO.C,CH2_TH*%
X189492695Y-61044317D03*
D28*
%TO.N,BEC_5V*%
X186952695Y-61044317D03*
%TO.N,GND*%
X184412695Y-61044317D03*
%TD*%
D27*
%TO.N,NetCH1_ST_1*%
%TO.C,CH1_ST*%
X189492695Y-58494317D03*
D28*
%TO.N,BEC_5V*%
X186952695Y-58494307D03*
%TO.N,GND*%
X184412695Y-58494307D03*
%TD*%
D29*
%TO.N,NetF4_2*%
%TO.C,J5*%
X96485305Y-66614317D03*
%TO.N,J5_USB_2_P2_N*%
X98985305Y-66614317D03*
%TO.N,J5_USB_2_P2_P*%
X100985305Y-66614317D03*
%TO.N,GND*%
X103485305Y-66614317D03*
%TO.N,J5_USB3_SSRX_N*%
X103985305Y-68114317D03*
%TO.N,J5_USB3_SSRX_P*%
X101985305Y-68114317D03*
%TO.N,GND*%
X99985305Y-68114317D03*
%TO.N,J5_USB3_SSTX_N*%
X97985305Y-68114317D03*
%TO.N,J5_USB3_SSTX_P*%
X95985305Y-68114317D03*
%TO.N,NetF5_2*%
X96485305Y-69814317D03*
%TO.N,J6_USB_2_P1_N*%
X98985305Y-69814317D03*
%TO.N,J6_USB_2_P1_P*%
X100985305Y-69814317D03*
%TO.N,GND*%
X103485305Y-69814317D03*
%TO.N,J6_USB4_SSRX_N*%
X103985305Y-71314317D03*
%TO.N,J6_USB4_SSRX_P*%
X101985305Y-71314317D03*
%TO.N,GND*%
X99985305Y-71314317D03*
%TO.N,J6_USB4_SSTX_N*%
X97985305Y-71314317D03*
%TO.N,J6_USB4_SSTX_P*%
X95985305Y-71314317D03*
D30*
%TO.N,GND*%
X93412695Y-64584317D03*
X93412695Y-70264317D03*
X106612695Y-64584317D03*
X106612695Y-70264317D03*
%TD*%
D31*
%TO.N,*%
X206742695Y-146463507D03*
X210582695Y-90514317D03*
X54455215Y-62799727D03*
X66955205Y-121207407D03*
X145538745Y-59207627D03*
X211326645Y-121310317D03*
D32*
X91058745Y-105930357D03*
X87466645Y-125583977D03*
D31*
X143742695Y-58463677D03*
X145538745Y-62799727D03*
X54455245Y-150799557D03*
X70547315Y-124799517D03*
X206742695Y-151543507D03*
X68751255Y-84463677D03*
X79470135Y-75001077D03*
X77674085Y-134265027D03*
X141202695Y-149003507D03*
X75134085Y-136805027D03*
X213122695Y-122054257D03*
X58047315Y-62799727D03*
D32*
X91058745Y-129176087D03*
D31*
X208538745Y-62799727D03*
X75134085Y-73205027D03*
D32*
X91058745Y-125583977D03*
D31*
X213122695Y-87974317D03*
X215662695Y-90514317D03*
X54455245Y-147207447D03*
X211326645Y-117718207D03*
X70547315Y-85207627D03*
X214918745Y-88718267D03*
X204946645Y-62799727D03*
X215662695Y-119514257D03*
X204202695Y-61003677D03*
X214918745Y-117718207D03*
X70547315Y-88799727D03*
X77674085Y-70665027D03*
X213122695Y-93054317D03*
D32*
X86722695Y-104134307D03*
D31*
X79470135Y-71408967D03*
X77674085Y-75745027D03*
D32*
X91058745Y-102338257D03*
D31*
X58047315Y-59207627D03*
X66955205Y-85207627D03*
X66211255Y-87003677D03*
D32*
X87466645Y-105930357D03*
D31*
X210582695Y-119514257D03*
X141946645Y-59207627D03*
X206742695Y-58463677D03*
X58791265Y-61003677D03*
X141202695Y-61003677D03*
X66955205Y-124799517D03*
X146282695Y-61003677D03*
D32*
X91802695Y-127380027D03*
D31*
X143742695Y-151543507D03*
X145538745Y-147207447D03*
X143742695Y-63543677D03*
X68751255Y-120463467D03*
X80214085Y-136805027D03*
X214918745Y-121310317D03*
D32*
X89262695Y-101594307D03*
D31*
X75878035Y-71408967D03*
X206742695Y-63543677D03*
X71291255Y-87003677D03*
X145538745Y-150799557D03*
X204946645Y-147207447D03*
D32*
X89262695Y-129920027D03*
D31*
X208538745Y-147207447D03*
X66211255Y-123003467D03*
X75878025Y-75001077D03*
X58047345Y-147207447D03*
X70547315Y-121207407D03*
D32*
X87466645Y-129176087D03*
D31*
X214918745Y-92310367D03*
X141946645Y-150799557D03*
X53711295Y-149003507D03*
X58791295Y-149003507D03*
X80214085Y-73205027D03*
X204946645Y-59207627D03*
X54455215Y-59207627D03*
X71291255Y-123003467D03*
X75878035Y-138601077D03*
X79470135Y-138601077D03*
X77674085Y-139345027D03*
X208538745Y-59207627D03*
X143742695Y-146463507D03*
X209282695Y-61003677D03*
D32*
X89262695Y-106674307D03*
D31*
X146282695Y-149003507D03*
X56251295Y-151543507D03*
X56251265Y-63543677D03*
X56251265Y-58463677D03*
D32*
X89262695Y-124840027D03*
D31*
X208538745Y-150799557D03*
D32*
X86722695Y-127380027D03*
D31*
X141946645Y-62799727D03*
X211326645Y-88718267D03*
D32*
X87466645Y-102338257D03*
D31*
X75878025Y-135008967D03*
X58047345Y-150799557D03*
X56251295Y-146463507D03*
X213122695Y-116974257D03*
X53711265Y-61003677D03*
X211326645Y-92310367D03*
X209282695Y-149003507D03*
X68751255Y-89543677D03*
X204946645Y-150799557D03*
X204202695Y-149003507D03*
X141946645Y-147207447D03*
X79470135Y-135008967D03*
X68751255Y-125543467D03*
X66955205Y-88799727D03*
D32*
X91802695Y-104134307D03*
%TO.N,GND*%
X52172695Y-79534317D03*
X205203795Y-116344317D03*
X232632695Y-106564317D03*
X108012695Y-80984317D03*
X183452695Y-84114317D03*
D33*
X142382695Y-86394317D03*
D32*
X196632695Y-93814317D03*
X140442695Y-75174317D03*
D33*
X155782695Y-77504317D03*
D32*
X182922695Y-111374297D03*
D33*
X140222695Y-83380027D03*
X195812695Y-144084317D03*
X184162695Y-107204317D03*
X187312695Y-109454317D03*
D32*
X124212695Y-111874297D03*
X183382695Y-124864317D03*
X231672695Y-115120467D03*
D33*
X145502695Y-79577717D03*
D32*
X176332695Y-125954317D03*
X55592695Y-120724317D03*
X134412695Y-114154317D03*
X107982695Y-99124317D03*
X122632705Y-146674317D03*
X52172695Y-73414317D03*
X178852695Y-116504317D03*
X187614495Y-104234317D03*
X179168485Y-120389317D03*
X193392695Y-65164317D03*
X117552695Y-103354317D03*
X168942695Y-81594317D03*
X142888515Y-140394317D03*
D33*
X203593265Y-138002527D03*
D32*
X176332695Y-116504317D03*
D33*
X161242695Y-71664317D03*
D32*
X112262695Y-92804317D03*
X111522695Y-119134317D03*
X217332695Y-101324317D03*
X126972695Y-75104317D03*
X133552695Y-145714317D03*
X52172695Y-91664317D03*
X230212695Y-137864317D03*
X229712695Y-128264317D03*
X172312695Y-107664317D03*
X119322695Y-68354317D03*
X124612695Y-81924317D03*
X216692695Y-133114317D03*
X122674085Y-140954317D03*
X219832695Y-113544317D03*
X90602695Y-144574317D03*
X124112695Y-68354317D03*
X174712695Y-86324317D03*
X137192695Y-78880027D03*
X183192695Y-117394317D03*
X132222695Y-121784317D03*
X212788465Y-76364317D03*
X207332695Y-119794317D03*
X199852695Y-72394317D03*
X52852695Y-113414317D03*
X124482695Y-79084317D03*
X200322695Y-106484317D03*
X230372695Y-115114317D03*
D33*
X178852695Y-108334317D03*
D32*
X132212695Y-82130027D03*
X200642695Y-78874317D03*
D33*
X154802695Y-83724317D03*
D32*
X160872695Y-87944317D03*
X143022695Y-90174317D03*
X143022695Y-89194317D03*
X227615145Y-118754317D03*
X162922695Y-89734317D03*
X142452695Y-91764317D03*
X132212695Y-132630027D03*
X155362495Y-105253597D03*
X126972695Y-77334317D03*
D33*
X159492695Y-69574317D03*
D32*
X77652695Y-87724317D03*
X117552695Y-122874317D03*
X199232695Y-116344317D03*
X119622695Y-79384317D03*
X140442695Y-79924317D03*
D33*
X157012695Y-105564317D03*
D32*
X127242695Y-147724317D03*
X155782695Y-99524317D03*
X94272695Y-97464317D03*
X117552695Y-104999317D03*
X132222695Y-117130027D03*
D33*
X143502695Y-84894317D03*
D32*
X77652695Y-123394317D03*
X147241095Y-100654317D03*
X166142695Y-71624317D03*
D33*
X140276525Y-120880017D03*
X124212695Y-121630017D03*
D32*
X137682695Y-144764317D03*
X121554085Y-140954317D03*
X199492695Y-86164317D03*
D33*
X124212695Y-123124317D03*
D32*
X52172695Y-85584317D03*
X122992695Y-68354317D03*
X132212695Y-128674317D03*
D33*
X158232695Y-80380027D03*
D32*
X134992695Y-104884317D03*
X130802695Y-151554317D03*
X125542695Y-68734317D03*
X178632695Y-125954317D03*
X132222695Y-122774317D03*
X140442695Y-78490027D03*
D33*
X155747995Y-71264317D03*
D32*
X132222695Y-115591287D03*
X142572695Y-68034317D03*
X224782695Y-109004317D03*
X118752695Y-79054317D03*
X137252695Y-132630027D03*
X160872695Y-89794317D03*
X163312695Y-59218737D03*
X112582695Y-57374317D03*
X94272695Y-110924317D03*
X213642695Y-77344317D03*
X121732695Y-111874317D03*
X215702705Y-133114317D03*
X111792695Y-86094317D03*
X127932695Y-80264317D03*
X126802695Y-151543507D03*
X193242695Y-105214317D03*
D33*
X143452695Y-79624317D03*
D32*
X205133865Y-105142387D03*
X146152695Y-89194317D03*
X215302695Y-108864317D03*
X121972695Y-107380027D03*
X128622695Y-93384317D03*
X232384575Y-127828677D03*
X130244085Y-140624317D03*
X132222695Y-124624317D03*
X126652695Y-68734317D03*
D33*
X147653805Y-84894317D03*
D32*
X229052695Y-115114317D03*
X117092695Y-82294317D03*
X179752695Y-124964317D03*
X183192695Y-141597357D03*
D33*
X154932695Y-86324317D03*
D32*
X178212695Y-120389317D03*
X154442695Y-105224317D03*
D33*
X181512695Y-105214317D03*
D32*
X125412695Y-82264317D03*
X183035465Y-114179317D03*
X104892695Y-153494317D03*
X137192695Y-77380027D03*
X128622695Y-90404317D03*
X124212695Y-118634317D03*
X158102695Y-141464317D03*
X124222695Y-104444307D03*
X227032695Y-78124317D03*
X199702695Y-63994317D03*
X107982695Y-110704317D03*
D33*
X124212695Y-120130017D03*
D32*
X152152695Y-89194317D03*
X132212695Y-91130027D03*
X132212695Y-79130027D03*
X133982695Y-120164317D03*
D33*
X124212695Y-127634317D03*
D32*
X132222695Y-120130027D03*
D33*
X124212695Y-126130027D03*
D32*
X124212695Y-116694317D03*
D33*
X140276525Y-119380027D03*
D32*
X224822695Y-99424317D03*
X222018695Y-118790467D03*
X194472695Y-114054317D03*
X149252695Y-105784317D03*
X227032695Y-81294317D03*
X175302695Y-87304517D03*
D33*
X124212695Y-130634317D03*
D32*
X144122695Y-101414317D03*
X124222685Y-96374307D03*
X137192695Y-86380027D03*
X231212695Y-137064317D03*
X119522695Y-78404317D03*
X208322695Y-133294317D03*
X231512685Y-126470857D03*
X211943555Y-125934317D03*
X136912695Y-126624317D03*
X94272695Y-90754317D03*
X128322695Y-115454317D03*
X217332695Y-97574317D03*
X111522695Y-113404317D03*
X115402695Y-77334317D03*
X137192695Y-87880027D03*
X113722695Y-100794317D03*
X232632695Y-100374297D03*
X137192695Y-91380027D03*
X132212695Y-126674317D03*
X163702695Y-141464317D03*
X160313455Y-83866937D03*
X232222695Y-104214317D03*
X237632695Y-115214317D03*
X150594015Y-78862997D03*
X132212695Y-85130027D03*
X211090415Y-71307007D03*
X140442695Y-81414317D03*
X230812695Y-102814317D03*
X128772695Y-118630027D03*
X166182695Y-137774317D03*
X77632695Y-83974317D03*
X206491515Y-106500027D03*
X166142695Y-70274317D03*
X177231975Y-121135387D03*
X119872695Y-101854317D03*
X131806545Y-57374317D03*
X132222695Y-94134317D03*
X140322695Y-113380027D03*
X198412695Y-69084317D03*
X145212695Y-101414317D03*
X140292695Y-110344317D03*
X205492695Y-69074317D03*
X211782695Y-70494317D03*
X134412695Y-107024317D03*
X52852695Y-117204317D03*
X213692695Y-75494317D03*
X150112695Y-75554317D03*
X231512695Y-106564317D03*
D33*
X161952695Y-73994317D03*
D32*
X175222695Y-116504317D03*
X140742695Y-95694317D03*
X207082695Y-127489457D03*
X231602695Y-81054317D03*
D33*
X160562695Y-79074317D03*
D32*
X186272695Y-97794317D03*
X117092695Y-81294317D03*
D33*
X144460695Y-86394317D03*
D32*
X219712695Y-101304317D03*
X220439695Y-121392437D03*
X132222695Y-89630027D03*
X217332695Y-99424317D03*
X151971105Y-96684317D03*
X58212695Y-118634317D03*
D33*
X205161225Y-138002527D03*
D32*
X202562695Y-78874317D03*
X156070815Y-88109577D03*
X128622695Y-96364317D03*
X219712695Y-98954317D03*
X136889495Y-114880027D03*
X107982695Y-106844317D03*
X115692695Y-68354317D03*
X133252695Y-62664317D03*
X140413305Y-135880027D03*
X136912695Y-128724317D03*
X143692695Y-68034317D03*
X208929195Y-100960817D03*
X163032695Y-135164317D03*
X132212695Y-80630027D03*
X201222695Y-74414317D03*
D33*
X195812695Y-138164317D03*
D32*
X220439695Y-120008167D03*
X111522695Y-121154317D03*
X207571545Y-99603167D03*
X140413305Y-132880027D03*
X113722695Y-101794317D03*
X178212695Y-121134517D03*
X137302695Y-98880027D03*
X195512695Y-93814317D03*
X160872695Y-93614317D03*
X168942695Y-77844317D03*
X128622695Y-87414317D03*
X75452695Y-144574317D03*
X207835015Y-107843527D03*
X228362695Y-104628607D03*
D33*
X148852695Y-86394317D03*
D32*
X117552695Y-106644317D03*
X196702695Y-114054317D03*
X121612695Y-131864317D03*
D33*
X152982695Y-84844317D03*
D32*
X224782695Y-111054317D03*
X112242695Y-138144317D03*
D33*
X178852695Y-107204317D03*
D32*
X145322695Y-106420017D03*
D33*
X166732695Y-125514317D03*
D32*
X196552695Y-73454317D03*
X121812695Y-135964317D03*
X132212695Y-86614307D03*
X139722695Y-142764317D03*
D33*
X157812695Y-83434317D03*
D32*
X198082705Y-63994317D03*
X152702695Y-94288597D03*
X128322695Y-107914317D03*
X179168485Y-121134517D03*
X208224545Y-127489457D03*
X217412695Y-112254317D03*
X136889495Y-119380027D03*
X137192695Y-89380027D03*
X162922695Y-87884317D03*
X149152695Y-89194317D03*
X132222695Y-97130027D03*
D33*
X165382695Y-122814317D03*
D32*
X224822695Y-98024317D03*
X132222695Y-114130027D03*
X217073425Y-107247557D03*
X204099775Y-117569297D03*
X120392695Y-78844317D03*
X157812695Y-99524317D03*
X117548905Y-147304317D03*
X196702695Y-118054317D03*
X184547255Y-97794317D03*
X232222695Y-102804317D03*
X222018695Y-121428587D03*
X178642695Y-124964317D03*
X169388625Y-57599957D03*
X77652695Y-119604317D03*
X124212695Y-117674317D03*
D33*
X157472695Y-68064317D03*
D32*
X116812695Y-68354317D03*
X230402695Y-100374297D03*
X117552695Y-126164317D03*
X136889495Y-113564317D03*
X214562695Y-76404317D03*
X151726895Y-99524317D03*
X177278365Y-120425017D03*
X179972695Y-103144317D03*
X125472695Y-98364317D03*
X182464695Y-94264317D03*
X121812695Y-136864317D03*
X127772695Y-68734317D03*
D33*
X150292695Y-84844317D03*
D32*
X160872695Y-91694317D03*
X137192695Y-81880027D03*
X216272705Y-144961947D03*
X132212695Y-88130027D03*
X231512695Y-100374297D03*
X83022695Y-144574317D03*
X124222695Y-102874297D03*
X114582695Y-68354317D03*
X232912695Y-135664317D03*
X128322695Y-109630027D03*
X197431195Y-119604317D03*
D33*
X179072695Y-103144317D03*
X137382695Y-134380027D03*
D32*
X115962695Y-153064317D03*
X198892695Y-76640027D03*
X211580845Y-103612467D03*
D33*
X158292695Y-77504317D03*
D32*
X132222695Y-104884317D03*
X127182695Y-99784317D03*
X132222695Y-118544317D03*
X195252695Y-75156907D03*
X220439695Y-118754317D03*
X228362695Y-102398607D03*
X238832695Y-115214317D03*
X182582695Y-83184317D03*
X140276525Y-117824317D03*
X193392695Y-63244317D03*
X180202695Y-121134517D03*
X135046555Y-152964317D03*
X145512695Y-97614317D03*
X225282695Y-79634317D03*
X136889495Y-116224317D03*
X79232695Y-144574317D03*
X218462695Y-77289757D03*
X107982695Y-114564317D03*
X94352695Y-137824317D03*
X145512695Y-94288597D03*
X160892695Y-135174317D03*
X214985845Y-61241027D03*
D33*
X124212695Y-129130027D03*
D32*
X77674085Y-91474317D03*
X94312695Y-131104317D03*
X111522695Y-118134317D03*
X94272695Y-124354317D03*
X219712695Y-103264317D03*
X117552695Y-124519317D03*
X151603945Y-59271357D03*
X126972695Y-76224317D03*
D33*
X153202695Y-77494317D03*
D32*
X111792695Y-84224317D03*
D33*
X169252695Y-106253597D03*
D32*
X168942695Y-79694317D03*
X203482695Y-98694317D03*
X137192695Y-84880027D03*
X124212695Y-115754317D03*
X230812695Y-104214317D03*
X94392695Y-144574317D03*
X210272695Y-102304317D03*
X120442695Y-68354317D03*
D33*
X155062695Y-80424317D03*
D32*
X170322695Y-135164317D03*
D33*
X184222695Y-109454317D03*
D32*
X146575855Y-140064317D03*
D33*
X140222695Y-86394317D03*
D32*
X77652695Y-127184317D03*
X212382695Y-107254317D03*
X185807685Y-110197907D03*
X107982695Y-102984317D03*
X203252695Y-70494317D03*
D33*
X151262695Y-81644317D03*
D32*
X132212695Y-77630027D03*
X111522695Y-112384307D03*
D33*
X195812695Y-137294317D03*
D32*
X58212695Y-117384317D03*
X197932695Y-76640027D03*
X124212695Y-113574317D03*
X147742695Y-105784317D03*
X52852695Y-109624317D03*
X140292695Y-93154317D03*
D34*
X153632695Y-71184317D03*
D32*
X140442695Y-77024317D03*
D33*
X155742695Y-69684317D03*
D32*
X132212695Y-83619317D03*
X162922695Y-91634317D03*
X137192695Y-80379217D03*
X220460245Y-122681197D03*
X198992695Y-103654317D03*
D33*
X137342695Y-120844317D03*
D32*
X219832695Y-107194317D03*
X127212695Y-117344317D03*
X181512695Y-94264317D03*
X143172695Y-116894317D03*
X206491515Y-120709317D03*
X142222695Y-101694317D03*
X145142695Y-140064317D03*
X136322695Y-149964317D03*
X124222695Y-94814317D03*
X168942695Y-83514317D03*
D33*
X142382695Y-83380027D03*
D32*
X115402695Y-76224317D03*
X117992695Y-57374317D03*
X149592695Y-79874317D03*
D33*
X181912695Y-111664297D03*
D32*
X229052695Y-116169337D03*
D33*
X153202695Y-79204317D03*
D32*
X143862695Y-120544317D03*
X115402695Y-75104317D03*
D33*
X146522695Y-86394317D03*
D32*
X134622695Y-57374317D03*
D33*
X155742695Y-68294317D03*
X160152695Y-70624317D03*
X146522695Y-83380027D03*
X151362695Y-86394317D03*
D32*
X86812695Y-144574317D03*
X177452695Y-116504317D03*
X119972695Y-153064317D03*
X107982695Y-95264317D03*
X183222695Y-144084317D03*
X207332695Y-133294317D03*
X121252695Y-79624317D03*
X111522695Y-122154317D03*
X153662695Y-99524317D03*
X160732695Y-80904317D03*
X222018695Y-120044317D03*
X77652695Y-130974317D03*
X201412695Y-86164317D03*
X210365125Y-72032287D03*
D33*
X159232695Y-67894317D03*
D32*
X138572695Y-139714317D03*
X219832695Y-112254317D03*
X165952695Y-65364317D03*
D33*
X145506035Y-84887657D03*
D35*
X154152695Y-67854317D03*
D32*
X187602695Y-107204317D03*
X174712695Y-97794317D03*
X196552695Y-74394317D03*
X148502695Y-105094317D03*
X201222695Y-73474317D03*
D33*
X124212695Y-124624317D03*
D32*
X132474085Y-140624317D03*
X121882695Y-68354317D03*
X148472695Y-80984317D03*
D33*
X141322695Y-84894317D03*
D32*
X198892695Y-72354317D03*
X118212695Y-68354317D03*
X160892695Y-141464317D03*
X135812695Y-146764317D03*
X124222695Y-106014317D03*
X128972695Y-135994317D03*
X151119015Y-63246527D03*
X110472695Y-151734317D03*
X205478135Y-121568877D03*
X213628195Y-62598667D03*
X94272695Y-84034317D03*
X99985305Y-65584317D03*
X94272695Y-104174317D03*
X142682695Y-95964317D03*
X124136545Y-152964317D03*
D33*
X179972695Y-107204317D03*
D32*
X177582695Y-124964317D03*
X111792695Y-87974317D03*
X199852695Y-76640027D03*
X123784085Y-140954317D03*
D33*
X137342695Y-122380027D03*
D32*
X218624625Y-125745417D03*
X201642695Y-63994317D03*
X112252695Y-130114317D03*
D33*
X148852695Y-83380027D03*
D32*
X182312695Y-124864317D03*
X193392695Y-67064317D03*
D33*
X196862695Y-144084317D03*
D32*
X197932695Y-72394317D03*
X123722695Y-57374317D03*
X230402695Y-106564317D03*
X231602695Y-84804317D03*
X133252695Y-63774317D03*
X231602695Y-79134317D03*
X195742695Y-86164317D03*
X162922695Y-93554317D03*
X211943555Y-126817247D03*
X230620815Y-127357867D03*
X94272695Y-117644317D03*
X131274085Y-144614317D03*
X132212695Y-130630027D03*
X184412695Y-135174317D03*
X107982695Y-118424317D03*
D33*
X144472695Y-83380027D03*
D32*
X164192695Y-137998337D03*
X197872695Y-103654317D03*
D33*
X155982695Y-82074317D03*
D32*
X136912695Y-130714317D03*
X168212695Y-66053017D03*
X147632695Y-116454317D03*
X141462695Y-68034317D03*
X197592695Y-86164317D03*
X134412695Y-117124317D03*
D34*
X157822695Y-71274317D03*
D33*
X151362695Y-83954317D03*
D32*
X77632695Y-80224317D03*
X108012695Y-83944317D03*
X199352695Y-69084317D03*
X217332695Y-103244317D03*
X203252695Y-71661167D03*
X129044085Y-144614317D03*
X219862695Y-78734317D03*
X166732695Y-135390027D03*
X136912695Y-124674317D03*
X231602695Y-82954317D03*
X183452695Y-94264317D03*
X132222695Y-111444317D03*
X180202695Y-120389317D03*
X166142695Y-57599957D03*
X77632695Y-115824317D03*
X131364085Y-140624317D03*
X130164085Y-144614317D03*
X172782695Y-97794317D03*
X180672695Y-114179317D03*
D33*
X179332695Y-111866127D03*
D32*
X204670815Y-122354317D03*
X142342695Y-136144317D03*
X120402695Y-79844317D03*
X158192135Y-85988257D03*
X112262695Y-93974317D03*
X201932695Y-97484317D03*
X140742695Y-98880027D03*
X228362695Y-103508607D03*
X232052695Y-136404317D03*
X137192695Y-83380027D03*
X135612695Y-108724317D03*
%TO.N,NetC78_2*%
X119562695Y-82294307D03*
X124612695Y-82880027D03*
X117112695Y-80244317D03*
%TO.N,+3V3C*%
X132472695Y-146654317D03*
X112202695Y-100034317D03*
X114082695Y-137074317D03*
X118252695Y-83934317D03*
X112202695Y-107380027D03*
X162402695Y-77504307D03*
X114082695Y-136224317D03*
X145947205Y-135890527D03*
X109812695Y-129754317D03*
X119552695Y-81294317D03*
X120712695Y-146964317D03*
X112202695Y-108674317D03*
X109197695Y-130369317D03*
X127772695Y-82130027D03*
X112202695Y-100874317D03*
%TO.N,+3V3*%
X150106105Y-97614317D03*
X196592695Y-66284317D03*
X207582695Y-69074317D03*
X173560695Y-102262317D03*
D36*
X224956865Y-124744317D03*
D32*
X151971105Y-118514117D03*
X213882695Y-70876457D03*
X152412695Y-136630027D03*
X227112695Y-97964317D03*
X152412695Y-105380027D03*
X150106095Y-94288597D03*
%TO.N,SCL_3*%
X214912695Y-129652757D03*
X219712695Y-129524317D03*
X205862695Y-131434327D03*
X223992695Y-94704317D03*
%TO.N,SDA_3*%
X208204245Y-130582767D03*
X222912695Y-100664317D03*
X214912695Y-130902757D03*
X219712695Y-131054317D03*
%TO.N,5V_HDMI_VCC*%
X162102695Y-72824317D03*
X166982695Y-63964317D03*
X166982695Y-72824317D03*
%TO.N,NetQ4_3*%
X158247695Y-73254327D03*
X161002695Y-73254317D03*
X155747995Y-73254327D03*
X150532695Y-73254317D03*
X153247995Y-73254327D03*
%TO.N,NetC4_2*%
X179798195Y-93814317D03*
X202322695Y-67614317D03*
%TO.N,SCL0*%
X147082685Y-119814317D03*
X149362695Y-140104317D03*
X234532695Y-117694317D03*
X177242665Y-141464317D03*
%TO.N,SDA0*%
X150712695Y-138974317D03*
X235267455Y-116169337D03*
X148382685Y-120464317D03*
X173182695Y-138974317D03*
%TO.N,CHIP_PU*%
X216642695Y-62195807D03*
D34*
X230402695Y-88384317D03*
X230402695Y-75164317D03*
D32*
X214326475Y-65494317D03*
%TO.N,PWM_IN6*%
X180472695Y-78874317D03*
X175352695Y-78874317D03*
%TO.N,NetPWM_1_1*%
X190682685Y-79784317D03*
X190662695Y-75474317D03*
%TO.N,NetPWM_2_1*%
X189952695Y-76694297D03*
X189952695Y-80714317D03*
%TO.N,NetCH2_TH_1*%
X227412695Y-85364317D03*
X227412695Y-94164317D03*
%TO.N,UART_SEL*%
X175302695Y-95514317D03*
X219692695Y-94704317D03*
X205652695Y-95274317D03*
X222722695Y-94704317D03*
%TO.N,BZ*%
X215198405Y-110718607D03*
X184162695Y-111324317D03*
%TO.N,BOOT*%
X230402695Y-71614317D03*
X227785215Y-75064317D03*
X227112695Y-112074317D03*
%TO.N,ID_MOTO*%
X172842695Y-125034317D03*
X220424995Y-114853217D03*
%TO.N,NetA1_139*%
X142452695Y-103714317D03*
X204412695Y-101304317D03*
%TO.N,NetA1_137*%
X142462695Y-104534317D03*
X203944925Y-102398607D03*
%TO.N,WS2812*%
X54932695Y-108674317D03*
X201612695Y-121944317D03*
%TO.N,MCU_TX2*%
X176948405Y-95238607D03*
X204412695Y-97184317D03*
%TO.N,MCU_RX2*%
X176412695Y-96164317D03*
X205177695Y-98929317D03*
%TO.N,MCU_RX0*%
X210618795Y-77674317D03*
X210632695Y-86164317D03*
%TO.N,MCU_TX0*%
X209902695Y-85192007D03*
X209902695Y-76640027D03*
%TO.N,NetCH1_ST_1*%
X229342695Y-86014317D03*
X237962695Y-112134307D03*
%TO.N,VCPU*%
X127932695Y-79054317D03*
D34*
X160012695Y-107464317D03*
D32*
X134412695Y-72474317D03*
X134412695Y-73304317D03*
D34*
X165612695Y-107464317D03*
D32*
X134422695Y-74134317D03*
D34*
X162312695Y-107464317D03*
D32*
X135212695Y-73304317D03*
D34*
X164412695Y-107464317D03*
X156312695Y-107464317D03*
X166812695Y-107464317D03*
D32*
X135212695Y-74134317D03*
D34*
X161112695Y-107464317D03*
D32*
X145942695Y-108824317D03*
D34*
X157612695Y-107464317D03*
D32*
X135212695Y-72474317D03*
%TO.N,NetD53_1*%
X210032695Y-140774317D03*
X206412695Y-140774317D03*
D36*
X170322695Y-124554317D03*
D32*
X208252695Y-140774317D03*
D33*
%TO.N,+5V*%
X182322695Y-122074317D03*
D32*
X88232695Y-65584317D03*
X166572695Y-61474317D03*
X88232695Y-69334317D03*
X203264275Y-135804317D03*
X200192695Y-126855407D03*
X89112695Y-58914317D03*
X88232695Y-67464317D03*
X181012695Y-125744317D03*
X88232695Y-59794317D03*
X168040695Y-128161117D03*
X203264275Y-126855407D03*
D34*
%TO.N,NetC1_2*%
X175012695Y-123220417D03*
X184112695Y-117914317D03*
D33*
X183382695Y-121944317D03*
%TO.N,CON_PCIE_TX_4_N*%
X144112695Y-123274317D03*
X124812695Y-120524317D03*
%TO.N,CON_PCIE_TX_0_N*%
X121772695Y-103974317D03*
X144162695Y-131224317D03*
%TO.N,CON_PCIE_TX_2_P*%
X144162695Y-128024317D03*
X124812695Y-127234317D03*
%TO.N,NetA1_131*%
X133612695Y-105880027D03*
X110102695Y-126764317D03*
X127182695Y-100984317D03*
X111342695Y-134880027D03*
D32*
%TO.N,EX_RX*%
X144412695Y-98564327D03*
X131282695Y-65594317D03*
%TO.N,NetA1_183*%
X169162695Y-72214317D03*
X162712695Y-80334317D03*
%TO.N,NetD12_3*%
X218202695Y-70994317D03*
X219272695Y-71834317D03*
%TO.N,CPU_TX0*%
X217332695Y-79134317D03*
X132612695Y-136784317D03*
%TO.N,CPU_RX0*%
X216012695Y-78464317D03*
X132547685Y-135974317D03*
D33*
%TO.N,USB3_SSTX_P*%
X98852695Y-59164317D03*
X136712695Y-135504317D03*
%TO.N,J6_USB_2_P1_N*%
X136682695Y-121984317D03*
D32*
X98142695Y-74824317D03*
D33*
%TO.N,J5_USB3_SSRX_P*%
X102272695Y-65494317D03*
%TO.N,CON_PCIE_TX_4_P*%
X144112695Y-124104317D03*
X124812695Y-121244317D03*
%TO.N,J4_USB_2_P3_N*%
X143162695Y-118984317D03*
D32*
X191542695Y-108864317D03*
D33*
%TO.N,J4_USB_2_P3_P*%
X143162695Y-118284317D03*
D32*
X191542695Y-107864267D03*
D33*
%TO.N,CON_PCIE_TX_3_N*%
X124812695Y-123514317D03*
X144162695Y-125254317D03*
%TO.N,CON_PCIE_TX_3_P*%
X144162695Y-126074317D03*
X124812695Y-124234317D03*
%TO.N,CON_PCIE_TX_2_N*%
X144162695Y-127224317D03*
X124812695Y-126514317D03*
%TO.N,CON_PCIE_TX_1_N*%
X144152695Y-129224317D03*
X124812695Y-129524317D03*
%TO.N,CON_PCIE_TX_1_P*%
X124812695Y-130234317D03*
X144152695Y-130004317D03*
%TO.N,~{{PLT_RST}}*%
X121202695Y-108034317D03*
X133972695Y-112380027D03*
%TO.N,~{{WAKE}}*%
X134412695Y-113014317D03*
X125012695Y-108654317D03*
D32*
%TO.N,NetA1_5*%
X143052695Y-98004317D03*
X150112695Y-76684307D03*
D33*
%TO.N,USB3_SSTX_N*%
X99562695Y-59164317D03*
X136712695Y-134784317D03*
D32*
%TO.N,J5_USB_2_P2_N*%
X98032695Y-64244317D03*
D33*
X140972695Y-120484317D03*
D32*
%TO.N,NetPD-MAX 15V_A5*%
X217266765Y-139228657D03*
X221532695Y-134894317D03*
%TO.N,NetPD-MAX 15V_A6*%
X232632695Y-131054317D03*
X218598345Y-138414997D03*
%TO.N,NetPD-MAX 15V_A7*%
X220412695Y-141059307D03*
X234152695Y-130240027D03*
%TO.N,EX_TX*%
X130012695Y-66364317D03*
X143612695Y-95238607D03*
D33*
%TO.N,J5_USB_2_P2_P*%
X140972695Y-119774317D03*
D32*
X101872695Y-64284317D03*
D33*
%TO.N,USB4_SSTX_N*%
X136712695Y-133284317D03*
X99582695Y-79474317D03*
%TO.N,CON_PCIE_TX_0_P*%
X144162695Y-132034317D03*
X121772695Y-103264317D03*
%TO.N,USB4_SSTX_P*%
X98872695Y-79474317D03*
X136712695Y-134004317D03*
D32*
%TO.N,J6_USB_2_P1_P*%
X101822695Y-74824317D03*
D33*
X136682695Y-121274317D03*
D32*
%TO.N,+BATT*%
X136858405Y-109880027D03*
X102292695Y-91934317D03*
X97002695Y-94174317D03*
X110942695Y-91934317D03*
%TO.N,J1_USB_2_P5_N*%
X191712695Y-99814317D03*
D33*
X140972695Y-111474317D03*
%TO.N,J1_USB_2_P5_P*%
X140972695Y-110764317D03*
D32*
X191712695Y-98844317D03*
%TD*%
%TO.N,+3V3*%
D37*
X158574745Y-97614317D02*
X163222735Y-102262317D01*
X150106105Y-97614317D02*
X152412695Y-97614317D01*
X152412695Y-97614317D02*
X158574745Y-97614317D01*
D38*
X150106095Y-94288597D02*
X150106105Y-94288607D01*
D37*
X163222735Y-102262317D02*
X173560695Y-102262317D01*
X150106105Y-97614317D02*
X150106105Y-94288607D01*
X152412695Y-105380027D02*
X152412695Y-97614317D01*
%TO.N,CHIP_PU*%
D39*
X230402695Y-88384317D02*
X230402695Y-75164317D01*
%TO.N,VCPU*%
D40*
X134812695Y-76314317D02*
X134812695Y-101141617D01*
X134812695Y-101141617D02*
X142485405Y-108814317D01*
D39*
X127932695Y-79054317D02*
X130672695Y-76314317D01*
D40*
X167362695Y-108814317D02*
X167412695Y-108864317D01*
X142485405Y-108814317D02*
X167362695Y-108814317D01*
D39*
X130672695Y-76314317D02*
X134812695Y-76314317D01*
%TD*%
M02*
