%TF.GenerationSoftware,KiCad,Pcbnew,10.0.2*%
%TF.CreationDate,2026-07-05T20:32:49+08:00*%
%TF.ProjectId,DonkeyDrift-MUS4,446f6e6b-6579-4447-9269-66742d4d5553,rev?*%
%TF.SameCoordinates,Original*%
%TF.FileFunction,Soldermask,Bot*%
%TF.FilePolarity,Negative*%
%FSLAX46Y46*%
G04 Gerber Fmt 4.6, Leading zero omitted, Abs format (unit mm)*
G04 Created by KiCad (PCBNEW 10.0.2) date 2026-07-05 20:32:49*
%MOMM*%
%LPD*%
G01*
G04 APERTURE LIST*
G04 Aperture macros list*
%AMRoundRect*
0 Rectangle with rounded corners*
0 $1 Rounding radius*
0 $2 $3 $4 $5 $6 $7 $8 $9 X,Y pos of 4 corners*
0 Add a 4 corners polygon primitive as box body*
4,1,4,$2,$3,$4,$5,$6,$7,$8,$9,$2,$3,0*
0 Add four circle primitives for the rounded corners*
1,1,$1+$1,$2,$3*
1,1,$1+$1,$4,$5*
1,1,$1+$1,$6,$7*
1,1,$1+$1,$8,$9*
0 Add four rect primitives between the rounded corners*
20,1,$1+$1,$2,$3,$4,$5,0*
20,1,$1+$1,$4,$5,$6,$7,0*
20,1,$1+$1,$6,$7,$8,$9,0*
20,1,$1+$1,$8,$9,$2,$3,0*%
%AMHorizOval*
0 Thick line with rounded ends*
0 $1 width*
0 $2 $3 position (X,Y) of the first rounded end (center of the circle)*
0 $4 $5 position (X,Y) of the second rounded end (center of the circle)*
0 Add line between two ends*
20,1,$1,$2,$3,$4,$5,0*
0 Add two circle primitives to create the rounded ends*
1,1,$1,$2,$3*
1,1,$1,$4,$5*%
G04 Aperture macros list end*
%ADD10C,6.203200*%
%ADD11RoundRect,0.147336X0.554264X0.879264X-0.554264X0.879264X-0.554264X-0.879264X0.554264X-0.879264X0*%
%ADD12RoundRect,0.701600X0.000010X0.325000X-0.000010X0.325000X-0.000010X-0.325000X0.000010X-0.325000X0*%
%ADD13C,2.403200*%
%ADD14O,3.703200X4.203200*%
%ADD15C,1.503200*%
%ADD16C,1.253200*%
%ADD17C,1.303200*%
%ADD18C,1.803200*%
%ADD19C,0.703200*%
%ADD20HorizOval,1.300000X0.172073X0.245746X-0.172073X-0.245746X0*%
%ADD21RoundRect,0.541440X0.243336X0.452405X-0.341896X-0.383392X-0.243336X-0.452405X0.341896X0.383392X0*%
%ADD22HorizOval,1.300000X-0.172073X0.245746X0.172073X-0.245746X0*%
%ADD23RoundRect,0.541440X0.341896X-0.383392X-0.243336X0.452405X-0.341896X0.383392X0.243336X-0.452405X0*%
%ADD24C,2.203200*%
%ADD25RoundRect,0.851600X0.000010X-0.900000X0.000010X0.900000X-0.000010X0.900000X-0.000010X-0.900000X0*%
%ADD26RoundRect,0.851600X0.000010X-0.400000X0.000010X0.400000X-0.000010X0.400000X-0.000010X-0.400000X0*%
%ADD27RoundRect,0.101600X-0.750000X1.350000X-0.750000X-1.350000X0.750000X-1.350000X0.750000X1.350000X0*%
%ADD28RoundRect,0.101600X0.750000X-1.350000X0.750000X1.350000X-0.750000X1.350000X-0.750000X-1.350000X0*%
%ADD29RoundRect,0.525400X0.525400X0.525400X-0.525400X0.525400X-0.525400X-0.525400X0.525400X-0.525400X0*%
%ADD30C,2.001600*%
%ADD31C,1.203200*%
%ADD32C,3.203200*%
G04 APERTURE END LIST*
D10*
%TO.C,FID2*%
X68751255Y-123003467D03*
%TD*%
%TO.C,FID1*%
X143742695Y-149003507D03*
%TD*%
%TO.C,FID8*%
X206742695Y-61003677D03*
%TD*%
D11*
%TO.C,CPU_FAN*%
X108892695Y-146684317D03*
D12*
X106892695Y-146684317D03*
X104892695Y-146684317D03*
X102892695Y-146684317D03*
%TD*%
D13*
%TO.C,3S BATTERY*%
X165952695Y-141914317D03*
X154952695Y-141914317D03*
D14*
X162952695Y-131914317D03*
X157952695Y-131914317D03*
%TD*%
D15*
%TO.C,BT1*%
X67072695Y-101169327D03*
D16*
X67072695Y-108619327D03*
%TD*%
D10*
%TO.C,*%
X167962695Y-89514317D03*
%TD*%
D17*
%TO.C,SSD_2230*%
X117862715Y-117380027D03*
D10*
X89262695Y-127380027D03*
D18*
X117862715Y-137380037D03*
%TD*%
D10*
%TO.C,FID3*%
X68751255Y-87003677D03*
%TD*%
%TO.C,FID7*%
X56251265Y-61003677D03*
%TD*%
D19*
%TO.C,UART*%
X222677555Y-71384277D03*
X217942875Y-68068997D03*
D20*
X225942838Y-69214736D03*
D21*
X223544935Y-72638657D03*
D20*
X218865318Y-64258996D03*
D21*
X216467475Y-67682937D03*
%TD*%
D19*
%TO.C,PD-MAX 15V*%
X217745785Y-142246987D03*
X222480475Y-138931707D03*
D22*
X218667687Y-146057370D03*
D23*
X216270395Y-142633047D03*
D22*
X225745217Y-141101630D03*
D23*
X223347865Y-137677337D03*
%TD*%
D10*
%TO.C,FID6*%
X56251295Y-149003507D03*
%TD*%
D13*
%TO.C,ESC_POWER*%
X197262695Y-135804317D03*
X186262695Y-135804317D03*
D14*
X189262695Y-130804317D03*
X194262695Y-130804317D03*
%TD*%
D24*
%TO.C,RECEIVER*%
X186882695Y-74814317D03*
X184342695Y-74814317D03*
X181802695Y-74814317D03*
X179262695Y-74814317D03*
X176722695Y-74814317D03*
X174182685Y-74814317D03*
X174182685Y-72274317D03*
X176722695Y-72274317D03*
X179262695Y-72274317D03*
X181802695Y-72274317D03*
X184342695Y-72274317D03*
X186882695Y-72274317D03*
X174182695Y-69734317D03*
X176722695Y-69734317D03*
X179262695Y-69734317D03*
X181802695Y-69734317D03*
X184342695Y-69734317D03*
X186882695Y-69734317D03*
%TD*%
D25*
%TO.C,HDMI*%
X150222695Y-65124317D03*
X164722695Y-65124317D03*
D26*
X150222695Y-59164317D03*
X164722695Y-59164317D03*
%TD*%
D10*
%TO.C,FID4*%
X206742695Y-149003507D03*
%TD*%
%TO.C,FID5*%
X143742695Y-61003677D03*
%TD*%
%TO.C,Camera*%
X213122695Y-90514317D03*
X213122695Y-119514257D03*
%TD*%
%TO.C,A1*%
X77674085Y-73205027D03*
X77674085Y-136805027D03*
D17*
X134674085Y-70605027D03*
D18*
X134674085Y-139405027D03*
%TD*%
D17*
%TO.C,WIFI_MODLE*%
X118062705Y-94134317D03*
D10*
X89262695Y-104134307D03*
D18*
X118062705Y-114134327D03*
%TD*%
D10*
%TO.C,*%
X193152695Y-89514317D03*
%TD*%
D27*
%TO.C,C86*%
X191062695Y-135484317D03*
X194212695Y-135484317D03*
%TD*%
D28*
%TO.C,C94*%
X133542695Y-73394317D03*
X130392695Y-73394317D03*
%TD*%
%TO.C,C88*%
X188602695Y-139065027D03*
X185452705Y-139065027D03*
%TD*%
D29*
%TO.C,PWM_1*%
X176622695Y-58494317D03*
D30*
X174082695Y-58494317D03*
X171542695Y-58494317D03*
%TD*%
D29*
%TO.C,PWM_2*%
X176622695Y-61074317D03*
D30*
X174082695Y-61074317D03*
X171542695Y-61074317D03*
%TD*%
D29*
%TO.C,CH2_TH*%
X189492695Y-61044317D03*
D30*
X186952695Y-61044317D03*
X184412695Y-61044317D03*
%TD*%
D28*
%TO.C,C85*%
X194212695Y-142684317D03*
X191062695Y-142684317D03*
%TD*%
D29*
%TO.C,CH1_ST*%
X189492695Y-58494317D03*
D30*
X186952695Y-58494307D03*
X184412695Y-58494307D03*
%TD*%
D28*
%TO.C,C87*%
X188602695Y-142684317D03*
X185452705Y-142684317D03*
%TD*%
%TO.C,C83*%
X194212695Y-139064317D03*
X191062695Y-139064317D03*
%TD*%
D27*
%TO.C,C93*%
X136362695Y-73394317D03*
X139512695Y-73394317D03*
%TD*%
D31*
%TO.C,J5*%
X96485305Y-66614317D03*
X98985305Y-66614317D03*
X100985305Y-66614317D03*
X103485305Y-66614317D03*
X103985305Y-68114317D03*
X101985305Y-68114317D03*
X99985305Y-68114317D03*
X97985305Y-68114317D03*
X95985305Y-68114317D03*
X96485305Y-69814317D03*
X98985305Y-69814317D03*
X100985305Y-69814317D03*
X103485305Y-69814317D03*
X103985305Y-71314317D03*
X101985305Y-71314317D03*
X99985305Y-71314317D03*
X97985305Y-71314317D03*
X95985305Y-71314317D03*
D32*
X93412695Y-64584317D03*
X93412695Y-70264317D03*
X106612695Y-64584317D03*
X106612695Y-70264317D03*
%TD*%
M02*
